<svg xmlns="http://www.w3.org/2000/svg" xmlns:xlink="http://www.w3.org/1999/xlink" width="27.571" height="27.608" viewBox="0 0 27.571 27.608">
  <defs>
    <linearGradient id="linear-gradient" x1="0.085" y1="1.113" x2="1.067" y2="0.07" gradientUnits="objectBoundingBox">
      <stop offset="0" stop-color="#fff"/>
      <stop offset="1" stop-color="#eee"/>
    </linearGradient>
    <linearGradient id="linear-gradient-2" x1="0.936" y1="-8.083" x2="-0.054" y2="-9.223" gradientUnits="objectBoundingBox">
      <stop offset="0" stop-color="#c2cece" stop-opacity="0"/>
      <stop offset="0.179" stop-color="#afbcbc" stop-opacity="0.18"/>
      <stop offset="1" stop-color="#5b6a6a"/>
    </linearGradient>
    <linearGradient id="linear-gradient-3" x1="0.771" y1="0.781" x2="-0.083" y2="1.568" xlink:href="#linear-gradient-2"/>
    <linearGradient id="linear-gradient-4" x1="0.223" y1="0.976" x2="-0.501" y2="1.746" xlink:href="#linear-gradient-2"/>
  </defs>
  <g id="email" opacity="0.5">
    <path id="Path_49" data-name="Path 49" d="M13.422,2.023.351,12.585v1.968H27.922V12.585L14.85,2.023A1.136,1.136,0,0,0,13.422,2.023Z" transform="translate(-0.351 -1.675)" fill="#c7c5c5"/>
    <path id="Path_50" data-name="Path 50" d="M45.583,23.795H22.557a1.136,1.136,0,0,1-1.136-1.136V1.136A1.136,1.136,0,0,1,22.557,0H45.583a1.136,1.136,0,0,1,1.136,1.136V22.658A1.136,1.136,0,0,1,45.583,23.795Z" transform="translate(-20.285)" fill="url(#linear-gradient)"/>
    <path id="Path_51" data-name="Path 51" d="M46.72,408.463v.442a1.327,1.327,0,0,1-1.327,1.327H22.749a1.327,1.327,0,0,1-1.327-1.327v-.442Z" transform="translate(-20.286 -386.438)" fill="url(#linear-gradient-2)"/>
    <g id="Group_670" data-name="Group 670" transform="translate(6.476 3.598)">
      <rect id="Rectangle_351" data-name="Rectangle 351" width="14.619" height="0.833"/>
      <rect id="Rectangle_352" data-name="Rectangle 352" width="14.619" height="0.833" transform="translate(0 3.333)"/>
      <rect id="Rectangle_353" data-name="Rectangle 353" width="14.619" height="0.833" transform="translate(0 6.741)"/>
      <rect id="Rectangle_354" data-name="Rectangle 354" width="14.619" height="0.833" transform="translate(0 10.15)"/>
    </g>
    <path id="Path_52" data-name="Path 52" d="M367.454,180.319a4.639,4.639,0,0,1-2.979-1.078l-.315.055,6.817,6.817v-7.406A4.646,4.646,0,0,1,367.454,180.319Z" transform="translate(-350.473 -168.963)" fill="url(#linear-gradient-3)"/>
    <g id="Path_53" data-name="Path 53" transform="translate(-0.351 -191.856)" fill="#fff">
      <path d="M 26.78546905517578 218.9644317626953 L 1.487149596214294 218.9644317626953 C 1.136379599571228 218.9644317626953 0.850999653339386 218.6790618896484 0.850999653339386 218.3282928466797 L 0.850999653339386 203.8222045898438 L 13.97817993164063 214.1763000488281 L 14.291259765625 214.4232482910156 L 14.60166931152344 214.1729736328125 L 27.4216194152832 203.8364410400391 L 27.4216194152832 218.3282928466797 C 27.4216194152832 218.6790618896484 27.13624000549316 218.9644317626953 26.78546905517578 218.9644317626953 Z" stroke="none"/>
      <path d="M 1.35099983215332 204.8534088134766 L 1.35099983215332 218.3282928466797 C 1.35099983215332 218.4033660888672 1.412078857421875 218.4644317626953 1.487150192260742 218.4644317626953 L 26.78545951843262 218.4644317626953 C 26.86054039001465 218.4644317626953 26.9216194152832 218.4033660888672 26.9216194152832 218.3282928466797 L 26.9216194152832 204.8818664550781 L 14.91549968719482 214.5622100830078 L 14.29467964172363 215.0627593994141 L 13.66852951049805 214.5688934326172 L 1.35099983215332 204.8534088134766 M 0.3509998321533203 202.791015625 L 14.28782939910889 213.7837219238281 L 27.9216194152832 202.791015625 L 27.9216194152832 218.3282928466797 C 27.9216194152832 218.9554595947266 27.41263961791992 219.4644317626953 26.78545951843262 219.4644317626953 L 1.487150192260742 219.4644317626953 C 0.8599796295166016 219.4644317626953 0.3509998321533203 218.9554595947266 0.3509998321533203 218.3282928466797 L 0.3509998321533203 202.791015625 Z" stroke="none"/>
    </g>
    <g id="Path_54" data-name="Path 54" transform="translate(-4.939 -289.397)" fill="#fff">
      <path d="M 31.37388229370117 316.5056762695313 L 6.107812404632568 316.5056762695313 L 18.47696304321289 306.5326538085938 C 18.58966255187988 306.4418029785156 18.7314624786377 306.3917541503906 18.87625312805176 306.3917541503906 C 19.02104377746582 306.3917541503906 19.16284370422363 306.4418029785156 19.27553367614746 306.5326538085938 L 31.59483528137207 316.4655151367188 C 31.52500915527344 316.4916687011719 31.45028686523438 316.5056762695313 31.37388229370117 316.5056762695313 Z" stroke="none"/>
      <path d="M 30.22793960571289 316.0056762695313 L 18.96169281005859 306.921875 C 18.93079376220703 306.89697265625 18.89817237854004 306.8917541503906 18.87625312805176 306.8917541503906 C 18.85433387756348 306.8917541503906 18.82171249389648 306.89697265625 18.79079246520996 306.9219055175781 L 7.524533748626709 316.0056762695313 L 30.22793960571289 316.0056762695313 M 31.37388229370117 317.0056762695313 L 6.07563304901123 317.0056762695313 C 5.723783016204834 317.0056762695313 5.409462928771973 316.8456420898438 5.201003074645996 316.5945434570313 L 18.16312217712402 306.1434326171875 C 18.37121391296387 305.9756469726563 18.62373542785645 305.8917541503906 18.87625694274902 305.8917541503906 C 19.1287784576416 305.8917541503906 19.38129806518555 305.9756469726563 19.58938217163086 306.1434326171875 L 32.35684204101563 316.4376220703125 C 32.16034317016602 316.7768859863281 31.79421234130859 317.0056762695313 31.37388229370117 317.0056762695313 Z" stroke="none"/>
    </g>
    <path id="Path_56" data-name="Path 56" d="M21.775,23.013V1.49A1.136,1.136,0,0,1,22.911.354H45.937a1.129,1.129,0,0,1,.606.176,1.134,1.134,0,0,0-.96-.53H22.557a1.136,1.136,0,0,0-1.136,1.136V22.658a1.134,1.134,0,0,0,.53.96A1.13,1.13,0,0,1,21.775,23.013Z" transform="translate(-20.285)" fill="url(#linear-gradient-4)"/>
  </g>
</svg>
