<svg xmlns="http://www.w3.org/2000/svg">

		<symbol id="arrow-down" viewBox="0 0 13 8">
			<path id="Union_49" data-name="Union 49" d="M-4247-304l-5,5Zm-10,0,5,5Z" transform="translate(4258.5 305.5)" fill="none" stroke="#000" stroke-linejoin="round" stroke-width="3" opacity="0.35"/>
		</symbol>
		
		<symbol id="chat" transform="translate(-319.157 -647)" viewBox="0 0 34.659 33">
		    <path id="Path_37" data-name="Path 37" d="M71.137,65.142V66.4a4.2,4.2,0,0,1-.88,2.575,18.037,18.037,0,0,1-4.868,4.351A16.763,16.763,0,0,1,61.634,81.5a18.014,18.014,0,0,1-11.13,0,16.762,16.762,0,0,1-3.755-8.175,18.036,18.036,0,0,1-4.868-4.351A4.2,4.2,0,0,1,41,66.4V65.142a4.2,4.2,0,0,1,.88-2.575,17.912,17.912,0,0,1,13.488-6.945V52.952a1.559,1.559,0,1,1,1.4,0v2.668a17.912,17.912,0,0,1,13.488,6.946A4.2,4.2,0,0,1,71.137,65.142Z" transform="translate(278.157 597.62)" fill="#dcffcf"/>
		    <path id="Path_38" data-name="Path 38" d="M56.069,156.8a17.856,17.856,0,0,0,9.355-2.629,16.79,16.79,0,0,1-.382,1.868,16.865,16.865,0,0,1-13.932,1.846.7.7,0,0,0-.887.853,23.7,23.7,0,0,0,1.619,4.218q-.679-.164-1.338-.379A16.761,16.761,0,0,1,46.75,154.4a18.034,18.034,0,0,1-4.87-4.351,4.2,4.2,0,0,1-.88-2.575v-1.256a4.2,4.2,0,0,1,.88-2.575,17.951,17.951,0,0,1,9.95-6.455,18.122,18.122,0,0,0-7.917,6.235,4.7,4.7,0,0,0-.88,2.753v1.342a4.7,4.7,0,0,0,.88,2.753,18.274,18.274,0,0,0,6.647,5.666A17.926,17.926,0,0,0,56.069,156.8Zm5.221-7.5a4.556,4.556,0,1,0-4.556-4.556A4.556,4.556,0,0,0,61.29,149.3Zm-15-4.556a4.556,4.556,0,1,0,4.556-4.556A4.556,4.556,0,0,0,46.292,144.747Z" transform="translate(278.157 516.54)" fill="#55db25"/>
		    <path id="Path_39" data-name="Path 39" d="M230.205,335.7a2.138,2.138,0,0,1-4.205,0,.7.7,0,1,1,1.4,0c0,.124.266.35.7.35s.7-.227.7-.35a.7.7,0,1,1,1.4,0Z" transform="translate(106.123 332.595)" fill="#55db25"/>
		    <path id="Path_40" data-name="Path 40" d="M144.653,193.855a3.855,3.855,0,1,1-7.563-1.051h-3.026a3.857,3.857,0,1,1-.478-1.051h3.983a3.854,3.854,0,0,1,7.085,2.1Z" transform="translate(198.65 467.432)" fill="#a8f68c"/>
		    <path id="Path_41" data-name="Path 41" d="M147.107,207.8a2.8,2.8,0,1,1-2.8-2.8A2.8,2.8,0,0,1,147.107,207.8Zm7.639-2.8a2.8,2.8,0,1,0,2.8,2.8A2.8,2.8,0,0,0,154.746,205Z" transform="translate(184.701 453.483)" fill="#dcffcf"/>
		    <path id="Path_42" data-name="Path 42" d="M189.468,208.169a2.8,2.8,0,0,1-2.414,2.776,4.037,4.037,0,0,0,0-5.552A2.8,2.8,0,0,1,189.468,208.169Zm8.029-2.776a4.037,4.037,0,0,1,0,5.552,2.8,2.8,0,0,0,0-5.552Z" transform="translate(142.34 453.118)" fill="#83e85e"/>
		    <path id="Path_34" data-name="Path 34" d="M279.522,2.1v2.1a2.1,2.1,0,0,1-2.1,2.1h-7.863a4.913,4.913,0,0,1-1.949,2.8,4.913,4.913,0,0,1-1.949-2.8H264.1a2.1,2.1,0,0,1-2.1-2.1V2.1A2.1,2.1,0,0,1,264.1,0h13.317A2.1,2.1,0,0,1,279.522,2.1Z" transform="translate(74.295 647)" fill="#55db25"/>
		    <path id="Path_35" data-name="Path 35" d="M265.627,6.308H264.1a2.1,2.1,0,0,1-2.1-2.1V2.1A2.1,2.1,0,0,1,264.1,0h1.524a2.1,2.1,0,0,0-2.1,2.1v2.1A2.1,2.1,0,0,0,265.627,6.308Z" transform="translate(74.295 647)" fill="#dcffcf"/>
		    <path id="Path_36" data-name="Path 36" d="M303.915,22.64v.771a.14.14,0,0,1-.14.14H292.14a.14.14,0,0,1-.14-.14V22.64a.14.14,0,0,1,.14-.14h11.634A.14.14,0,0,1,303.915,22.64ZM296.626,24.6H292.14a.14.14,0,0,0-.14.14v.771a.14.14,0,0,0,.14.14h4.486a.14.14,0,0,0,.14-.14v-.771A.14.14,0,0,0,296.626,24.6Zm3.031,0a.526.526,0,1,0,.526.526A.526.526,0,0,0,299.657,24.6Zm-1.665,0a.526.526,0,1,0,.526.526A.526.526,0,0,0,297.992,24.6Zm3.329,0a.526.526,0,1,0,.526.526A.526.526,0,0,0,301.322,24.6Z" transform="translate(46.397 626.077)" fill="#dcffcf"/> 
		</symbol>
		<symbol id="star" viewBox="0 0 27 25.748">
			 <path data-name="Path 65" d="M14.138.876,17.573,9l8.793.755a.693.693,0,0,1,.395,1.214l-6.669,5.778,2,8.6a.692.692,0,0,1-1.033.75L13.5,21.541,5.944,26.1a.693.693,0,0,1-1.033-.75l2-8.6L.24,10.973A.693.693,0,0,1,.635,9.759L9.427,9,12.862.876a.692.692,0,0,1,1.276,0Z" transform="translate(0 -0.452)" fill="#fa8231"/>
		</symbol>

		<symbol id="nike" viewBox="0 0 512.013 512.013"><title>nike</title>
			<path d="M287.757,225.794l-31.808,8.352l-88.256,23.104c-31.168,7.712-58.432,17.984-84.704,8.992 c-35.712-15.424-35.072-55.552-8.448-98.24C27.469,206.85-57.235,331.074,57.325,343.618c14.592,1.92,40.576-3.2,68.8-15.072 l129.824-53.28l256.064-104.704L287.757,225.794z"/>
		</symbol>

		<symbol id="worldwide" viewBox="0 0 480.1 480.1">
			<title>worldwide</title>
				<path d="M240.135,0.05C144.085,0.036,57.277,57.289,19.472,145.586l-2.992,0.992l1.16,3.48 c-49.776,122.766,9.393,262.639,132.159,312.415c28.673,11.626,59.324,17.594,90.265,17.577 c132.548,0.02,240.016-107.416,240.036-239.964S372.684,0.069,240.135,0.05z M428.388,361.054l-12.324-12.316V320.05 c0.014-1.238-0.26-2.462-0.8-3.576l-31.2-62.312V224.05c0-2.674-1.335-5.172-3.56-6.656l-24-16 c-1.881-1.256-4.206-1.657-6.4-1.104l-29.392,7.344l-49.368-21.184l-6.792-47.584l18.824-18.816h40.408l13.6,20.44 c1.228,1.838,3.163,3.087,5.344,3.448l48,8c1.286,0.216,2.604,0.111,3.84-0.304l44.208-14.736 C475.855,208.053,471.889,293.634,428.388,361.054z M395.392,78.882l-13.008,8.672l-36.264-7.256l-23.528-7.832 c-1.44-0.489-2.99-0.551-4.464-0.176l-29.744,7.432l-13.04-4.344l9.664-19.328h27.056c1.241,0.001,2.465-0.286,3.576-0.84 l27.68-13.84C362.382,51.32,379.918,63.952,395.392,78.882z M152.44,33.914l19.2,12.8c0.944,0.628,2.01,1.048,3.128,1.232 l38.768,6.464l-3.784,11.32l-20.2,6.744c-1.809,0.602-3.344,1.83-4.328,3.464l-22.976,38.288l-36.904,22.144l-54.4,7.768 c-3.943,0.557-6.875,3.93-6.88,7.912v24c0,2.122,0.844,4.156,2.344,5.656l13.656,13.656v13.744l-33.28-22.192l-12.072-36.216 C57.68,98.218,99.777,56.458,152.44,33.914z M129.664,296.21l-36.16-7.24l-13.44-26.808v-18.8l29.808-29.808l11.032,22.072 c1.355,2.712,4.128,4.425,7.16,4.424h51.472l21.672,36.12c1.446,2.407,4.048,3.879,6.856,3.88h22.24l-5.6,28.056l-30.288,30.288 c-1.503,1.499-2.349,3.533-2.352,5.656v20l-28.8,21.6c-2.014,1.511-3.2,3.882-3.2,6.4v28.896l-9.952-3.296l-14.048-35.136V304.05 C136.065,300.248,133.389,296.97,129.664,296.21z M105.616,419.191C30.187,362.602-1.712,264.826,25.832,174.642l6.648,19.936 c0.56,1.687,1.666,3.14,3.144,4.128l39.88,26.584l-9.096,9.104c-1.5,1.5-2.344,3.534-2.344,5.656v24 c-0.001,1.241,0.286,2.465,0.84,3.576l16,32c1.108,2.21,3.175,3.784,5.6,4.264l33.6,6.712v73.448 c-0.001,1.016,0.192,2.024,0.568,2.968l16,40c0.876,2.185,2.67,3.874,4.904,4.616l24,8c0.802,0.272,1.642,0.412,2.488,0.416 c4.418,0,8-3.582,8-8v-36l28.8-21.6c2.014-1.511,3.2-3.882,3.2-6.4v-20.688l29.656-29.656c1.115-1.117,1.875-2.54,2.184-4.088 l8-40c0.866-4.333-1.944-8.547-6.277-9.413c-0.515-0.103-1.038-0.155-1.563-0.155h-27.472l-21.672-36.12 c-1.446-2.407-4.048-3.879-6.856-3.88h-51.056l-13.744-27.576c-1.151-2.302-3.339-3.91-5.88-4.32 c-2.54-0.439-5.133,0.399-6.936,2.24l-10.384,10.344V192.05c0-2.122-0.844-4.156-2.344-5.656l-13.656-13.656v-13.752l49.136-7.016 c1.055-0.153,2.07-0.515,2.984-1.064l40-24c1.122-0.674,2.062-1.614,2.736-2.736l22.48-37.464l21.192-7.072 c2.393-0.785,4.271-2.662,5.056-5.056l8-24c1.386-4.195-0.891-8.72-5.086-10.106c-0.387-0.128-0.784-0.226-1.186-0.294 l-46.304-7.72l-8.136-5.424c50.343-16.386,104.869-14.358,153.856,5.72l-14.616,7.296h-30.112c-3.047-0.017-5.838,1.699-7.2,4.424 l-16,32c-1.971,3.954-0.364,8.758,3.59,10.729c0.337,0.168,0.685,0.312,1.042,0.431l24,8c1.44,0.489,2.99,0.551,4.464,0.176 l29.744-7.432l21.792,7.256c0.312,0.112,0.633,0.198,0.96,0.256l40,8c2.08,0.424,4.244-0.002,6.008-1.184l18.208-12.144 c8.961,9.981,17.014,20.741,24.064,32.152l-39.36,13.12l-42.616-7.104l-14.08-21.12c-1.476-2.213-3.956-3.547-6.616-3.56h-48 c-2.122,0-4.156,0.844-5.656,2.344l-24,24c-1.782,1.781-2.621,4.298-2.264,6.792l8,56c0.403,2.769,2.223,5.126,4.8,6.216l56,24 c1.604,0.695,3.394,0.838,5.088,0.408l28.568-7.144l17.464,11.664v27.72c-0.014,1.238,0.26,2.462,0.8,3.576l31.2,62.312v30.112 c0,2.122,0.844,4.156,2.344,5.656l16.736,16.744C344.921,473.383,204.549,493.415,105.616,419.191z"/></symbol><symbol id="facebook" viewBox="0 0 48.605 48.605"><title>facebook</title><path d="M34.094,8.688h4.756V0.005h-8.643c-0.721-0.03-9.51-0.198-11.788,8.489c-0.033,0.091-0.761,2.157-0.761,6.983l-7.903,0.024 v9.107l7.913-0.023v24.021h12.087v-24h8v-9.131h-8v-2.873C29.755,10.816,30.508,8.688,34.094,8.688z M35.755,17.474v5.131h-8v24 h-8.087V22.579l-7.913,0.023v-5.107l7.934-0.023l-0.021-1.017c-0.104-5.112,0.625-7.262,0.658-7.365 c1.966-7.482,9.473-7.106,9.795-7.086l6.729,0.002v4.683h-2.756c-4.673,0-6.338,3.054-6.338,5.912v4.873L35.755,17.474 L35.755,17.474z"/></symbol>

			<symbol id="twitter" viewBox="0 -47 512.00004 512"><title>twitter</title><path d="m512 55.964844c-32.207031 1.484375-31.503906 1.363281-35.144531 1.667968l19.074219-54.472656s-59.539063 21.902344-74.632813 25.820313c-39.640625-35.628907-98.5625-37.203125-140.6875-11.3125-34.496094 21.207031-53.011719 57.625-46.835937 100.191406-67.136719-9.316406-123.703126-41.140625-168.363282-94.789063l-14.125-16.964843-10.554687 19.382812c-13.339844 24.492188-17.769531 52.496094-12.476563 78.851563 2.171875 10.8125 5.863282 21.125 10.976563 30.78125l-12.117188-4.695313-1.4375 20.246094c-1.457031 20.566406 5.390625 44.574219 18.320313 64.214844 3.640625 5.53125 8.328125 11.605469 14.269531 17.597656l-6.261719-.960937 7.640625 23.199218c10.042969 30.480469 30.902344 54.0625 57.972657 67.171875-27.035157 11.472657-48.875 18.792969-84.773438 30.601563l-32.84375 10.796875 30.335938 16.585937c11.566406 6.324219 52.4375 27.445313 92.820312 33.78125 89.765625 14.078125 190.832031 2.613282 258.871094-58.664062 57.308594-51.613282 76.113281-125.03125 72.207031-201.433594-.589844-11.566406 2.578125-22.605469 8.921875-31.078125 12.707031-16.964844 48.765625-66.40625 48.84375-66.519531zm-72.832031 48.550781c-10.535157 14.066406-15.8125 32.03125-14.867188 50.578125 3.941407 77.066406-17.027343 136.832031-62.328125 177.628906-52.917968 47.660156-138.273437 66.367188-234.171875 51.324219-17.367187-2.722656-35.316406-8.820313-50.171875-14.910156 30.097656-10.355469 53.339844-19.585938 90.875-37.351563l52.398438-24.800781-57.851563-3.703125c-27.710937-1.773438-50.785156-15.203125-64.96875-37.007812 7.53125-.4375 14.792969-1.65625 22.023438-3.671876l55.175781-15.367187-55.636719-13.625c-27.035156-6.621094-42.445312-22.796875-50.613281-35.203125-5.363281-8.152344-8.867188-16.503906-10.96875-24.203125 5.578125 1.496094 12.082031 2.5625 22.570312 3.601563l51.496094 5.09375-40.800781-31.828126c-29.398437-22.929687-41.179687-57.378906-32.542969-90.496093 91.75 95.164062 199.476563 88.011719 210.320313 90.527343-2.386719-23.183593-2.449219-23.238281-3.074219-25.445312-13.886719-49.089844 16.546875-74.015625 30.273438-82.453125 28.671874-17.621094 74.183593-20.277344 105.707031 8.753906 6.808593 6.265625 16.015625 8.730469 24.632812 6.589844 7.734375-1.921875 14.082031-3.957031 20.296875-6.171875l-12.9375 36.945312 16.515625.011719c-3.117187 4.179688-6.855469 9.183594-11.351562 15.183594zm0 0"/></symbol>

			<symbol id="google-plus" viewBox="0 -91 512 512"><title>google-plus</title><path d="m482 90h-90v30h-30v90h30v30h90v-30h30v-90h-30zm0 90h-30v30h-30v-30h-30v-30h30v-30h30v30h30zm0 0"/><path d="m166 0c-91.53125 0-166 74.019531-166 165s74.46875 165 166 165 166-74.019531 166-165c0-11.097656-1.109375-22.195312-3.300781-32.984375l-2.4375-12.015625h-93.046875l61.0625-61.066406c-4.886719-3.421875-46.808594-58.933594-128.277344-58.933594zm63.820312 80.964844c-18.152343-13.449219-40.710937-20.964844-63.820312-20.964844-58.050781 0-106 47.117188-106 105 0 57.8125 47.886719 105 106 105 45.265625 0 85.398438-28.8125 99.996094-69.988281l7.097656-20.011719h-92.09375v-30h120.175781c.546875 4.96875.824219 9.984375.824219 15 0 74.4375-61.011719 135-136 135s-136-60.5625-136-135 61.011719-135 136-135c31.0625 0 61.382812 10.628906 85.238281 29.546875zm-3.0625 129.035156c-14.179687 18.339844-36.816406 30-60.757812 30-41.90625 0-76-33.644531-76-75s34.09375-75 76-75c39.195312 0 58.128906 27.207031 62.007812 30h-77.007812v90zm0 0"/></symbol>
			<symbol id="shopping-cart" viewBox="0 -11 414.00226 414"><title>shopping-cart</title><path d="m202.480469 352.132812c0-21.800781-17.671875-39.472656-39.46875-39.472656-21.800781 0-39.472657 17.671875-39.472657 39.46875 0 21.800782 17.671876 39.472656 39.472657 39.472656 21.785156-.023437 39.445312-17.679687 39.46875-39.46875zm-64.941407 0c0-14.070312 11.402344-25.472656 25.472657-25.472656 14.066406 0 25.46875 11.402344 25.46875 25.46875 0 14.070313-11.402344 25.472656-25.46875 25.472656-14.0625-.015624-25.457031-11.410156-25.472657-25.46875zm0 0"/><path d="m309.167969 391.601562c21.800781.003907 39.472656-17.667968 39.472656-39.46875.003906-21.800781-17.667969-39.472656-39.46875-39.472656s-39.472656 17.671875-39.472656 39.472656c.027343 21.785157 17.679687 39.441407 39.46875 39.46875zm0-64.941406c14.066406 0 25.472656 11.402344 25.472656 25.46875.003906 14.066406-11.402344 25.472656-25.46875 25.472656s-25.472656-11.402343-25.472656-25.46875c.015625-14.058593 11.410156-25.453124 25.46875-25.472656zm0 0"/><path d="m7 14h42.699219c14.050781-.054688 26.03125 10.175781 28.171875 24.066406l33.800781 213.511719c3.191406 20.703125 21.050781 35.957031 42 35.875h208.929687c3.863282 0 7-3.136719 7-7 0-3.867187-3.136718-7-7-7h-208.929687c-14.050781.054687-26.03125-10.179687-28.171875-24.066406l-5.746094-36.300781h213.980469c18.117187-.007813 34.242187-11.484376 40.179687-28.597657l39.699219-114.578125c.746094-2.140625.40625-4.507812-.90625-6.355468-1.316406-1.84375-3.441406-2.941407-5.707031-2.941407h-311.386719l-3.914062-24.738281c-3.191407-20.703125-21.050781-35.9570312-42-35.875h-42.699219c-3.867188 0-7 3.136719-7 7 0 3.867188 3.132812 7 7 7zm390.164062 60.617188-36.476562 105.285156c-3.984375 11.480468-14.800781 19.179687-26.953125 19.183594h-216.199219l-19.707031-124.472657zm0 0"/></symbol>
			<symbol id="message" viewBox="0 0 512 512"><title>message</title><g> <g> <path d="M511.609,197.601c-0.001-0.77-0.173-1.933-0.472-2.603c-0.787-2.854-2.536-5.461-5.154-7.281l-73.292-50.948V82.153 c0-7.24-5.872-13.112-13.112-13.112H335.26l-71.743-49.878c-4.484-3.121-10.437-3.134-14.935-0.026l-72.206,49.904H92.426 c-7.242,0-13.112,5.872-13.112,13.112v53.973L5.666,187.027c-3.623,2.504-5.583,6.507-5.645,10.6 C0.017,197.704,0,197.777,0,197.857l0.391,284.235c0.005,3.477,1.391,6.81,3.852,9.266c2.458,2.451,5.788,3.827,9.26,3.827 c0.007,0,0.012,0,0.018,0l485.385-0.667c7.24-0.01,13.104-5.889,13.094-13.13L511.609,197.601z M432.69,168.708l41.898,29.118 l-41.898,29.128V168.708z M256.015,45.884l33.31,23.156h-66.812L256.015,45.884z M105.538,95.265h300.928v149.921L305.43,315.428 l-41.194-31.954c-0.064-0.05-0.119-0.081-0.181-0.126c-4.604-3.454-11.116-3.581-15.894,0.126l-41.493,32.185l-101.13-69.893 V95.265z M79.314,168.003v59.64l-43.146-29.819L79.314,168.003z M26.258,222.867l158.669,109.655L26.578,455.346L26.258,222.867z M51.875,468.909l204.324-158.484l203.591,157.923L51.875,468.909z M327.144,332.271l158.276-110.036l0.32,233.059 L327.144,332.271z"/> </g> </g><g> <g> <path d="M344.77,147.713H167.234c-7.24,0-13.112,5.872-13.112,13.112s5.872,13.112,13.112,13.112H344.77 c7.242,0,13.112-5.872,13.112-13.112S352.012,147.713,344.77,147.713z"/> </g> </g><g> <g> <path d="M344.77,215.895H167.234c-7.24,0-13.112,5.872-13.112,13.112c0,7.24,5.872,13.112,13.112,13.112H344.77 c7.242,0,13.112-5.872,13.112-13.112C357.882,221.767,352.012,215.895,344.77,215.895z"/> </g> </g></symbol>

			<symbol id="bell" viewBox="-34 0 512 512.001"><title>bell</title><path d="m425.015625 370.628906h-13.023437l-4.996094-9.589844c-11.050782-21.199218-16.890625-45.039062-16.890625-68.941406v-83.472656c0-30.515625-8.714844-60.136719-25.199219-85.65625-2.25-3.484375-6.902344-4.484375-10.382812-2.234375-3.484376 2.25-4.484376 6.898437-2.234376 10.382813 14.914063 23.089843 22.796876 49.890624 22.796876 77.507812v83.472656c0 26.308594 6.429687 52.550782 18.589843 75.882813l1.382813 2.648437h-344.996094l1.382812-2.648437c12.160157-23.332031 18.589844-49.574219 18.589844-75.882813v-83.472656c0-78.875 64.171875-143.046875 143.046875-143.046875h18.957031c37.117188 0 72.300782 14.152344 99.066407 39.855469 2.988281 2.871094 7.746093 2.773437 10.617187-.214844 2.871094-2.992188 2.777344-7.746094-.214844-10.621094-18.804687-18.054687-41.371093-30.945312-65.855468-37.945312.070312-1.113282.105468-2.234375.105468-3.363282 0-29.382812-23.90625-53.289062-53.289062-53.289062s-53.289062 23.90625-53.289062 53.289062c0 1.15625.050781 2.300782.128906 3.441407-65.933594 19.027343-114.292969 79.917969-114.292969 151.894531v83.472656c0 23.902344-5.84375 47.742188-16.890625 68.941406l-5 9.589844h-14.066406c-10.507813 0-19.058594 8.550782-19.058594 19.058594v36.6875c0 10.507812 8.550781 19.058594 19.058594 19.058594h56.785156c4.148438 0 7.511719-3.363282 7.511719-7.511719 0-4.144531-3.363281-7.507813-7.511719-7.507813h-56.785156c-2.226563 0-4.039063-1.8125-4.039063-4.039062v-36.6875c0-2.226562 1.8125-4.039062 4.039063-4.039062h405.960937c2.226563 0 4.035157 1.8125 4.035157 4.039062v36.6875c0 2.226562-1.8125 4.039062-4.035157 4.039062h-314.128906c-4.148437 0-7.511719 3.363282-7.511719 7.507813 0 4.148437 3.363282 7.511719 7.511719 7.511719h38.035156c3.777344 37.332031 35.386719 66.566406 73.699219 66.566406 38.308594 0 69.921875-29.234375 73.699219-66.566406h128.691406c10.511719 0 19.058594-8.550782 19.058594-19.058594v-36.6875c0-10.507812-8.546875-19.058594-19.058594-19.058594zm-202.546875-355.609375c21.0625 0 38.199219 17.101563 38.265625 38.144531-9.382813-1.71875-18.976563-2.605468-28.695313-2.605468h-18.957031c-9.863281 0-19.511719.914062-28.878906 2.652344.042969-21.066407 17.191406-38.191407 38.265625-38.191407zm.15625 481.960938c-30.019531 0-54.882812-22.515625-58.582031-51.546875h117.164062c-3.703125 29.03125-28.5625 51.546875-58.582031 51.546875zm0 0"/></symbol>
</svg>