<svg xmlns="http://www.w3.org/2000/svg" width="37.039" height="30.02" viewBox="0 0 37.039 30.02">
  <path id="XMLID_1_" d="M11.662,30.12A21.76,21.76,0,0,1,0,26.719c.594.054,1.242.108,1.836.108a15.134,15.134,0,0,0,9.395-3.24A7.52,7.52,0,0,1,4.157,18.3a6.634,6.634,0,0,0,1.458.108,8.469,8.469,0,0,0,2-.27,7.641,7.641,0,0,1-6.1-7.559,7.926,7.926,0,0,0,3.456.972A7.461,7.461,0,0,1,2.592,1.45,21.68,21.68,0,0,0,18.25,9.387a7.424,7.424,0,0,1,1.458-6.425A7.521,7.521,0,0,1,25.647.1a7.72,7.72,0,0,1,5.561,2.376A15.8,15.8,0,0,0,36.013.64a7.4,7.4,0,0,1-3.348,4.211,17.492,17.492,0,0,0,4.373-1.188,14.6,14.6,0,0,1-3.78,3.941,22.247,22.247,0,0,1-6.1,16.144A20.909,20.909,0,0,1,11.662,30.12Z" transform="translate(0 -0.1)" fill="#fff"/>
</svg>
