<svg xmlns="http://www.w3.org/2000/svg" width="21.055" height="21.05" viewBox="0 0 21.055 21.05">
  <g id="worldwide" transform="translate(0 -0.05)" opacity="0.75">
    <g id="Group_2" data-name="Group 2" transform="translate(0 0.05)">
      <path id="Path_11" data-name="Path 11" d="M10.531.05A10.525,10.525,0,0,0,.854,6.432l-.131.044.051.153A10.524,10.524,0,1,0,10.531.05Zm8.256,15.832-.54-.54V14.084a.35.35,0,0,0-.035-.157l-1.368-2.733V9.873a.351.351,0,0,0-.156-.292l-1.053-.7a.351.351,0,0,0-.281-.048l-1.289.322L11.9,8.225l-.3-2.087.826-.825H14.2l.6.9a.351.351,0,0,0,.234.151l2.105.351A.348.348,0,0,0,17.3,6.7l1.939-.646A9.788,9.788,0,0,1,18.787,15.882ZM17.34,3.507l-.57.38-1.59-.318-1.032-.343a.345.345,0,0,0-.2-.008l-1.3.326-.572-.191.424-.848h1.187a.351.351,0,0,0,.157-.037l1.214-.607A9.86,9.86,0,0,1,17.34,3.507ZM6.685,1.535l.842.561a.35.35,0,0,0,.137.054l1.7.283-.166.5-.886.3a.351.351,0,0,0-.19.152L7.115,5.057,5.5,6.028l-2.386.341a.351.351,0,0,0-.3.347V7.768a.351.351,0,0,0,.1.248l.6.6v.6L2.052,8.245,1.522,6.657A9.88,9.88,0,0,1,6.685,1.535Zm-1,11.5L4.1,12.721l-.589-1.176V10.72L4.818,9.413l.484.968a.351.351,0,0,0,.314.194H7.874l.95,1.584a.351.351,0,0,0,.3.17H10.1l-.246,1.23L8.526,14.888a.351.351,0,0,0-.1.248v.877L7.16,16.96a.351.351,0,0,0-.14.281v1.267l-.436-.145-.616-1.541V13.382A.351.351,0,0,0,5.686,13.038ZM4.632,18.431a9.821,9.821,0,0,1-3.5-10.725l.292.874a.351.351,0,0,0,.138.181L3.311,9.928l-.4.4a.351.351,0,0,0-.1.248v1.053a.351.351,0,0,0,.037.157l.7,1.4a.351.351,0,0,0,.246.187l1.474.294V16.89a.351.351,0,0,0,.025.13l.7,1.754a.351.351,0,0,0,.215.2l1.053.351a.345.345,0,0,0,.109.018A.351.351,0,0,0,7.721,19V17.417l1.263-.947a.351.351,0,0,0,.14-.281v-.907l1.3-1.3a.351.351,0,0,0,.1-.179l.351-1.754a.351.351,0,0,0-.344-.42h-1.2l-.95-1.584a.351.351,0,0,0-.3-.17H5.833l-.6-1.209a.351.351,0,0,0-.258-.189.344.344,0,0,0-.3.1l-.455.454V8.47a.351.351,0,0,0-.1-.248l-.6-.6v-.6l2.155-.308A.352.352,0,0,0,5.8,6.666L7.551,5.613a.351.351,0,0,0,.12-.12L8.657,3.85l.929-.31a.347.347,0,0,0,.222-.222l.351-1.053a.351.351,0,0,0-.275-.456L7.853,1.471,7.5,1.233a9.8,9.8,0,0,1,6.747.251L13.6,1.8H12.282A.351.351,0,0,0,11.966,2l-.7,1.4a.351.351,0,0,0,.2.489l1.053.351a.345.345,0,0,0,.2.008l1.3-.326.956.318a.258.258,0,0,0,.042.011l1.754.351a.348.348,0,0,0,.263-.052l.8-.533a9.9,9.9,0,0,1,1.055,1.41L17.164,6l-1.869-.312-.617-.926a.351.351,0,0,0-.29-.156H12.282a.351.351,0,0,0-.248.1L10.982,5.766a.351.351,0,0,0-.1.3l.351,2.456a.351.351,0,0,0,.211.273L13.9,9.845a.347.347,0,0,0,.223.018l1.253-.313.766.512v1.216a.35.35,0,0,0,.035.157l1.368,2.733v1.321a.351.351,0,0,0,.1.248l.734.734A9.821,9.821,0,0,1,4.632,18.431Z" transform="translate(0 -0.05)"/>
    </g>
  </g>
</svg>
