<svg xmlns="http://www.w3.org/2000/svg" width="34.659" height="33" viewBox="0 0 34.659 33">
  <g id="chat" transform="translate(-319.157 -647)">
    <path id="Path_37" data-name="Path 37" d="M71.137,65.142V66.4a4.2,4.2,0,0,1-.88,2.575,18.037,18.037,0,0,1-4.868,4.351A16.763,16.763,0,0,1,61.634,81.5a18.014,18.014,0,0,1-11.13,0,16.762,16.762,0,0,1-3.755-8.175,18.036,18.036,0,0,1-4.868-4.351A4.2,4.2,0,0,1,41,66.4V65.142a4.2,4.2,0,0,1,.88-2.575,17.912,17.912,0,0,1,13.488-6.945V52.952a1.559,1.559,0,1,1,1.4,0v2.668a17.912,17.912,0,0,1,13.488,6.946A4.2,4.2,0,0,1,71.137,65.142Z" transform="translate(278.157 597.62)" fill="#dcffcf"/>
    <path id="Path_38" data-name="Path 38" d="M56.069,156.8a17.856,17.856,0,0,0,9.355-2.629,16.79,16.79,0,0,1-.382,1.868,16.865,16.865,0,0,1-13.932,1.846.7.7,0,0,0-.887.853,23.7,23.7,0,0,0,1.619,4.218q-.679-.164-1.338-.379A16.761,16.761,0,0,1,46.75,154.4a18.034,18.034,0,0,1-4.87-4.351,4.2,4.2,0,0,1-.88-2.575v-1.256a4.2,4.2,0,0,1,.88-2.575,17.951,17.951,0,0,1,9.95-6.455,18.122,18.122,0,0,0-7.917,6.235,4.7,4.7,0,0,0-.88,2.753v1.342a4.7,4.7,0,0,0,.88,2.753,18.274,18.274,0,0,0,6.647,5.666A17.926,17.926,0,0,0,56.069,156.8Zm5.221-7.5a4.556,4.556,0,1,0-4.556-4.556A4.556,4.556,0,0,0,61.29,149.3Zm-15-4.556a4.556,4.556,0,1,0,4.556-4.556A4.556,4.556,0,0,0,46.292,144.747Z" transform="translate(278.157 516.54)" fill="#55db25"/>
    <path id="Path_39" data-name="Path 39" d="M230.205,335.7a2.138,2.138,0,0,1-4.205,0,.7.7,0,1,1,1.4,0c0,.124.266.35.7.35s.7-.227.7-.35a.7.7,0,1,1,1.4,0Z" transform="translate(106.123 332.595)" fill="#55db25"/>
    <path id="Path_40" data-name="Path 40" d="M144.653,193.855a3.855,3.855,0,1,1-7.563-1.051h-3.026a3.857,3.857,0,1,1-.478-1.051h3.983a3.854,3.854,0,0,1,7.085,2.1Z" transform="translate(198.65 467.432)" fill="#a8f68c"/>
    <path id="Path_41" data-name="Path 41" d="M147.107,207.8a2.8,2.8,0,1,1-2.8-2.8A2.8,2.8,0,0,1,147.107,207.8Zm7.639-2.8a2.8,2.8,0,1,0,2.8,2.8A2.8,2.8,0,0,0,154.746,205Z" transform="translate(184.701 453.483)" fill="#dcffcf"/>
    <path id="Path_42" data-name="Path 42" d="M189.468,208.169a2.8,2.8,0,0,1-2.414,2.776,4.037,4.037,0,0,0,0-5.552A2.8,2.8,0,0,1,189.468,208.169Zm8.029-2.776a4.037,4.037,0,0,1,0,5.552,2.8,2.8,0,0,0,0-5.552Z" transform="translate(142.34 453.118)" fill="#83e85e"/>
    <path id="Path_34" data-name="Path 34" d="M279.522,2.1v2.1a2.1,2.1,0,0,1-2.1,2.1h-7.863a4.913,4.913,0,0,1-1.949,2.8,4.913,4.913,0,0,1-1.949-2.8H264.1a2.1,2.1,0,0,1-2.1-2.1V2.1A2.1,2.1,0,0,1,264.1,0h13.317A2.1,2.1,0,0,1,279.522,2.1Z" transform="translate(74.295 647)" fill="#55db25"/>
    <path id="Path_35" data-name="Path 35" d="M265.627,6.308H264.1a2.1,2.1,0,0,1-2.1-2.1V2.1A2.1,2.1,0,0,1,264.1,0h1.524a2.1,2.1,0,0,0-2.1,2.1v2.1A2.1,2.1,0,0,0,265.627,6.308Z" transform="translate(74.295 647)" fill="#dcffcf"/>
    <path id="Path_36" data-name="Path 36" d="M303.915,22.64v.771a.14.14,0,0,1-.14.14H292.14a.14.14,0,0,1-.14-.14V22.64a.14.14,0,0,1,.14-.14h11.634A.14.14,0,0,1,303.915,22.64ZM296.626,24.6H292.14a.14.14,0,0,0-.14.14v.771a.14.14,0,0,0,.14.14h4.486a.14.14,0,0,0,.14-.14v-.771A.14.14,0,0,0,296.626,24.6Zm3.031,0a.526.526,0,1,0,.526.526A.526.526,0,0,0,299.657,24.6Zm-1.665,0a.526.526,0,1,0,.526.526A.526.526,0,0,0,297.992,24.6Zm3.329,0a.526.526,0,1,0,.526.526A.526.526,0,0,0,301.322,24.6Z" transform="translate(46.397 626.077)" fill="#dcffcf"/>
  </g>
</svg>
