<svg xmlns="http://www.w3.org/2000/svg" width="135.681" height="23.889" viewBox="0 0 135.681 23.889">
  <path id="Union_28" data-name="Union 28" d="M0,11.923a11.967,11.967,0,0,1,20.342-8.5L17.863,5.556a8.715,8.715,0,1,0-5.9,15.128c3.676,0,6.411-2.351,7.265-6.24H11.752v-3.2H22.863l.043,1.239c-.043,6.624-4.615,11.41-10.94,11.41A11.973,11.973,0,0,1,0,11.923Zm31.281,6.965V14.273l-4.572.043V11.367h4.572V6.8h2.949v4.572H38.8v2.906l-4.572.043v4.572Zm95.111-2.016q-1.247-1.416-1.248-4.584a7.815,7.815,0,0,1,1.309-4.945,4.9,4.9,0,0,1,4.068-1.632,5.111,5.111,0,0,1,3.852,1.356,5.65,5.65,0,0,1,1.308,4.068l-.24,2.232h-7.056a3,3,0,0,0,.3,1.283,1.371,1.371,0,0,0,.815.625,5.4,5.4,0,0,0,1.572.18q.792,0,1.9-.049t1.607-.1l.672-.072.048,2.376a20.43,20.43,0,0,1-4.847.671A5.154,5.154,0,0,1,126.392,16.872Zm2.472-7.932a3.249,3.249,0,0,0-.5,1.98h4.152a3.35,3.35,0,0,0-.444-2,1.9,1.9,0,0,0-1.572-.564A2,2,0,0,0,128.865,8.941Zm-9.936,8.915a2.45,2.45,0,0,1-1.1-1.416,8.7,8.7,0,0,1-.336-2.712V8.736h-1.417V6h1.417V2.664H120.7V6h2.952V8.736H120.7v4.92a3.938,3.938,0,0,0,.168,1.355q.167.42.84.4l1.824-.048.144,2.568q-.96.216-1.5.288a8.147,8.147,0,0,1-1.092.072A4.451,4.451,0,0,1,118.929,17.856Zm-6.277.265a4.175,4.175,0,0,1-1.452-.672,8.093,8.093,0,0,1-3.528.84q-3.721,0-3.72-3.936a3.324,3.324,0,0,1,1-2.7,5.592,5.592,0,0,1,3.2-.972l2.569-.192V9.744a1.3,1.3,0,0,0-.324-1.008,1.642,1.642,0,0,0-1.093-.288q-.791,0-2.183.06t-2.328.131l-.1-2.232a18.931,18.931,0,0,1,4.9-.7,4.758,4.758,0,0,1,3.325.96,4.052,4.052,0,0,1,1.02,3.072v4.992a1.736,1.736,0,0,0,.2.815.95.95,0,0,0,.588.312l-.1,2.424A9.274,9.274,0,0,1,112.652,18.121Zm-4.116-5.208a1.3,1.3,0,0,0-1.344,1.44q0,1.32,1.175,1.32a7.788,7.788,0,0,0,1.993-.288l.36-.1V12.721Zm-15.384,3.96Q91.9,15.456,91.9,12.289a7.815,7.815,0,0,1,1.308-4.945A4.9,4.9,0,0,1,97.28,5.712a5.109,5.109,0,0,1,3.852,1.356,5.65,5.65,0,0,1,1.309,4.068l-.24,2.232H95.144a3.012,3.012,0,0,0,.3,1.283,1.373,1.373,0,0,0,.816.625,5.4,5.4,0,0,0,1.572.18q.791,0,1.9-.049t1.608-.1l.672-.072.048,2.376a20.431,20.431,0,0,1-4.848.671A5.152,5.152,0,0,1,93.153,16.872Zm2.471-7.932a3.262,3.262,0,0,0-.5,1.98h4.153a3.349,3.349,0,0,0-.445-2,1.894,1.894,0,0,0-1.571-.564A2,2,0,0,0,95.624,8.941ZM72.608,17.376a4.627,4.627,0,0,1-1.908-2.7,17.756,17.756,0,0,1-.516-4.764,18.018,18.018,0,0,1,.563-5.089A4.464,4.464,0,0,1,72.633,2.2a7.121,7.121,0,0,1,3.7-.8A20.974,20.974,0,0,1,81.2,2.04l-.1,2.64a27.016,27.016,0,0,0-3.864-.36A4.357,4.357,0,0,0,74.96,4.8a2.547,2.547,0,0,0-1.067,1.571,12.216,12.216,0,0,0-.3,3.084v.888a15.384,15.384,0,0,0,.3,3.083,2.271,2.271,0,0,0,1,1.476,4.467,4.467,0,0,0,2.281.456,27.9,27.9,0,0,0,3.936-.336l.072,2.712a22.572,22.572,0,0,1-4.584.552A7.265,7.265,0,0,1,72.608,17.376ZM83.577,18V6h3.191V7.272a12.847,12.847,0,0,1,3.84-1.56v3.24a32.964,32.964,0,0,0-3.336.84l-.48.168V18Z" fill="#fff"/>
</svg>
